<svg aria-hidden="true" style="position: absolute; width: 0; height: 0; overflow: hidden;" version="1.1" xmlns="http://www.w3.org/2000/svg" xmlns:xlink="http://www.w3.org/1999/xlink">
<defs>
<symbol id="icon-binator-logo" viewBox="0 0 122 32">
<path fill="#9893a3" style="fill: var(--color1, #9893a3)" opacity="0.6" d="M30.092 5.852c1.025 1.111 1.869 2.35 2.507 3.68 0.929 1.939 1.407 4.033 1.404 6.149-0.007 8.541-7.591 15.467-16.958 15.486-2.179-0.001-4.338-0.389-6.354-1.143-1.438-0.521-2.789-1.225-4.011-2.091-5.198-3.612-7.657-9.626-6.321-15.459s6.228-10.447 12.577-11.861c6.348-1.414 13.023 0.625 17.157 5.24zM22.697 4.47c-1.774-0.753-3.708-1.143-5.665-1.143l0.013-0.023c-4.641-0.003-8.96 2.162-11.444 5.737s-2.786 8.061-0.801 11.886c0.566-0.542 0.915-1.243 0.99-1.989 0.456-2.872 2.93-5.127 6.079-5.543 1.777-0.147 3.196-1.412 3.397-3.029 0.456-2.872 2.93-5.127 6.079-5.543 0.466-0.065 0.921-0.184 1.354-0.354zM6.667 23.681c0.050-0.042 0.1-0.082 0.15-0.123 0.1-0.081 0.201-0.163 0.301-0.254 1.115-0.986 1.831-2.287 2.030-3.691 0.081-0.789 0.467-1.527 1.090-2.080 0.599-0.569 1.406-0.919 2.269-0.983 3.149-0.416 5.623-2.671 6.079-5.543 0.054-0.826 0.443-1.604 1.090-2.183 0.614-0.558 1.429-0.895 2.294-0.949 1.409-0.177 2.723-0.748 3.76-1.634 1.181 0.894 2.182 1.969 2.958 3.177-0.048 0.059-0.102 0.112-0.163 0.16-0.598 0.574-1.404 0.931-2.268 1.006-3.153 0.409-5.631 2.668-6.079 5.543-0.182 1.622-1.592 2.903-3.372 3.063-3.158 0.412-5.645 2.666-6.116 5.543-0.067 0.558-0.278 1.095-0.614 1.566-1.286-0.696-2.438-1.58-3.409-2.617zM13.271 27.612c1.222 0.32 2.488 0.481 3.76 0.48v-0.057c4.197-0.015 8.15-1.801 10.706-4.838s3.424-6.981 2.354-10.682c-0.951 0.614-2.053 1.006-3.208 1.143-1.775 0.165-3.178 1.445-3.359 3.063-0.457 2.875-2.937 5.132-6.091 5.543-1.775 0.165-3.178 1.445-3.359 3.063-0.112 0.8-0.384 1.575-0.802 2.286z"></path>
<path fill="#9893a3" style="fill: var(--color1, #9893a3)" opacity="0.6" d="M46.618 22.162h2.567c0.744 0 1.116-0.447 1.116-1.339v-5.58c0-0.893-0.372-1.339-1.116-1.339h-2.567c-0.744 0-1.116 0.446-1.116 1.339v5.58c0 0.893 0.372 1.339 1.116 1.339zM46.618 24.171c-2.232 0-3.348-1.116-3.348-3.348v-12.946l2.121-1.004h0.112v5.368c0.298-0.231 0.67-0.346 1.116-0.346h2.567c2.232 0 3.348 1.116 3.348 3.348v5.58c0 2.232-1.116 3.348-3.348 3.348h-2.567z"></path>
<path fill="#9893a3" style="fill: var(--color1, #9893a3)" opacity="0.6" d="M57.75 9.427c-0.26-0.268-0.391-0.588-0.391-0.96 0-0.379 0.13-0.703 0.391-0.971s0.577-0.402 0.949-0.402c0.372 0 0.688 0.134 0.949 0.402s0.391 0.592 0.391 0.971c0 0.372-0.13 0.692-0.391 0.96s-0.577 0.402-0.949 0.402c-0.372 0-0.688-0.134-0.949-0.402zM57.582 24.617v-12.165l2.121-1.004h0.112v12.165l-2.121 1.004h-0.112z"></path>
<path fill="#9893a3" style="fill: var(--color1, #9893a3)" opacity="0.6" d="M64.864 24.617v-9.375c0-2.232 1.116-3.348 3.348-3.348h2.567c2.232 0 3.348 1.116 3.348 3.348v8.37l-2.12 1.004h-0.112v-9.375c0-0.893-0.372-1.339-1.116-1.339h-2.567c-0.744 0-1.116 0.446-1.116 1.339v8.37l-2.121 1.004h-0.112z"></path>
<path fill="#9893a3" style="fill: var(--color1, #9893a3)" opacity="0.6" d="M81.408 22.162h2.344c0.744 0 1.116-0.447 1.116-1.339v-1.529c0-0.893-0.372-1.339-1.116-1.339h-2.344c-0.744 0-1.116 0.446-1.116 1.339v1.529c0 0.893 0.372 1.339 1.116 1.339zM81.408 24.171c-2.232 0-3.348-1.116-3.348-3.348v-1.529c0-2.232 1.116-3.348 3.348-3.348h2.344c0.387 0 0.759 0.112 1.116 0.335v-1.038c0-0.893-0.372-1.339-1.116-1.339h-3.996v-0.112l0.893-1.897h3.103c2.232 0 3.348 1.116 3.348 3.348v8.37l-2.121 1.004h-0.112v-0.781c-0.283 0.223-0.655 0.335-1.116 0.335h-2.344z"></path>
<path fill="#9893a3" style="fill: var(--color1, #9893a3)" opacity="0.6" d="M93.065 24.617v-10.692h-2.868v-0.112l0.904-1.92h1.964v-4.018l2.12-1.004h0.112v5.022h2.868v0.112l-0.904 1.92h-1.964v9.688l-2.121 1.004h-0.112z"></path>
<path fill="#9893a3" style="fill: var(--color1, #9893a3)" opacity="0.6" d="M104.609 22.162h2.567c0.744 0 1.116-0.447 1.116-1.339v-5.58c0-0.893-0.372-1.339-1.116-1.339h-2.567c-0.744 0-1.116 0.446-1.116 1.339v5.58c0 0.893 0.372 1.339 1.116 1.339zM104.609 24.171c-2.232 0-3.348-1.116-3.348-3.348v-5.58c0-2.232 1.116-3.348 3.348-3.348h2.567c2.232 0 3.348 1.116 3.348 3.348v5.58c0 2.232-1.116 3.348-3.348 3.348h-2.567z"></path>
<path fill="#9893a3" style="fill: var(--color1, #9893a3)" opacity="0.6" d="M115.015 24.617v-9.375c0-2.232 1.117-3.348 3.349-3.348h2.791v0.112l-0.894 1.897h-1.897c-0.744 0-1.115 0.446-1.115 1.339v8.37l-2.121 1.004h-0.112z"></path>
</symbol>
<symbol id="icon-buyme-logo" viewBox="0 0 83 32">
<path fill="#9893a3" style="fill: var(--color1, #9893a3)" opacity="0.6" d="M2.777 1.028v22.445c0 0.275-0.101 0.54-0.281 0.735s-0.424 0.304-0.678 0.304h-0.224c-0.53 0-0.959-0.465-0.959-1.039v-22.445c0.006-0.569 0.433-1.028 0.959-1.028h0.224c0.526-0 0.953 0.458 0.959 1.028zM14.539 15.256c0.203-0.209 0.475-0.319 0.755-0.303l-0.051 0.022c0.297-0.033 0.592 0.077 0.808 0.3s0.331 0.538 0.314 0.86v6.078c0 0.641-0.48 1.16-1.071 1.16s-1.071-0.52-1.071-1.16v-6.155c-0-0.303 0.114-0.593 0.317-0.802zM17.6 18.455c0-0.61 0.457-1.105 1.020-1.105 0.295-0.029 0.588 0.082 0.801 0.305s0.327 0.535 0.311 0.856v1.337c0 0.638-0.477 1.155-1.066 1.155s-1.066-0.517-1.066-1.155v-1.392zM9.54 27.65v-7.99c-0.319 0.263-0.711 0.399-1.112 0.387-0.367-0.010-0.723-0.141-1.020-0.376v7.979c0 0.638 0.477 1.155 1.066 1.155s1.066-0.517 1.066-1.155zM5.092 22.688c-0.367-0.012-0.722-0.143-1.020-0.376v8.012c0 0.641 0.48 1.16 1.071 1.16s1.071-0.52 1.071-1.16v-7.957c-0.333 0.233-0.726 0.346-1.122 0.321zM11.907 17.317c-0.384-0.003-0.758-0.134-1.071-0.376v8.034c0 0.641 0.48 1.16 1.071 1.16s1.071-0.519 1.071-1.16v-8.023c-0.324 0.261-0.719 0.397-1.122 0.387l0.051-0.022zM5.205 21.837h-0.224c-0.53 0-0.959-0.465-0.959-1.039v-17.096c0.006-0.569 0.433-1.028 0.959-1.028h0.224c0.526-0 0.953 0.458 0.959 1.028v17.118c0 0.574-0.429 1.039-0.959 1.039v-0.022zM8.347 19.207h0.235c0.524 0 0.949-0.46 0.949-1.028v-11.825c0-0.569-0.423-1.033-0.949-1.039h-0.235c-0.253 0-0.496 0.11-0.674 0.305s-0.277 0.459-0.274 0.734v11.825c0 0.568 0.425 1.028 0.949 1.028zM11.958 16.499h-0.214c-0.526 0-0.953-0.458-0.959-1.028v-6.365c-0.017-0.287 0.077-0.568 0.258-0.778s0.435-0.328 0.701-0.327h0.224c0.53 0 0.959 0.465 0.959 1.039v6.41c0.003 0.277-0.097 0.545-0.277 0.742s-0.425 0.308-0.682 0.308h-0.010zM15.12 14.123h0.235c0.526-0.006 0.949-0.469 0.949-1.039v-1.647c-0.006-0.569-0.433-1.028-0.959-1.028h-0.224c-0.526 0-0.953 0.458-0.959 1.028v1.647c0 0.574 0.429 1.039 0.959 1.039z"></path>
<path fill="#9893a3" style="fill: var(--color1, #9893a3)" opacity="0.6" d="M38.22 14.518c0 1.354-0.289 2.411-0.867 3.172-0.578 0.755-1.385 1.133-2.422 1.133-0.917 0-1.648-0.352-2.195-1.055l-0.102 0.898h-2.031v-12h2.258v4.305c0.521-0.609 1.206-0.914 2.055-0.914 1.031 0 1.839 0.38 2.422 1.141 0.589 0.755 0.883 1.82 0.883 3.195v0.125zM35.962 14.354c0-0.854-0.135-1.477-0.406-1.867-0.271-0.396-0.675-0.594-1.211-0.594-0.719 0-1.214 0.294-1.484 0.883v3.336c0.276 0.594 0.776 0.891 1.5 0.891 0.729 0 1.208-0.359 1.438-1.078 0.109-0.344 0.164-0.867 0.164-1.57zM45.569 17.807c-0.557 0.677-1.328 1.016-2.313 1.016-0.906 0-1.599-0.26-2.078-0.781-0.474-0.521-0.716-1.284-0.727-2.289v-5.539h2.258v5.461c0 0.88 0.401 1.32 1.203 1.32 0.766 0 1.292-0.266 1.578-0.797v-5.984h2.266v8.453h-2.125l-0.063-0.859zM53.505 15.471l1.563-5.258h2.422l-3.398 9.766-0.188 0.445c-0.505 1.104-1.339 1.656-2.5 1.656-0.328 0-0.661-0.049-1-0.148v-1.711l0.344 0.008c0.427 0 0.745-0.065 0.953-0.195 0.214-0.13 0.38-0.346 0.5-0.648l0.266-0.695-2.961-8.477h2.43l1.57 5.258zM60.472 10.213l0.031 1.375c0.313-0.51 0.703-0.893 1.172-1.148s0.99-0.383 1.563-0.383c1.333 0 2.18 0.547 2.539 1.641 0.302-0.526 0.706-0.93 1.211-1.211 0.505-0.287 1.063-0.43 1.672-0.43 1.813 0 2.737 0.989 2.773 2.969v5.641h-0.937v-5.57c-0.005-0.755-0.169-1.315-0.492-1.68-0.318-0.365-0.838-0.547-1.563-0.547-0.672 0.010-1.24 0.229-1.703 0.656-0.464 0.422-0.721 0.938-0.773 1.547v5.594h-0.938v-5.641c-0.005-0.724-0.177-1.263-0.516-1.617-0.333-0.359-0.849-0.539-1.547-0.539-0.589 0-1.094 0.169-1.516 0.508-0.422 0.333-0.734 0.831-0.938 1.492v5.797h-0.938v-8.453h0.898zM77.97 18.823c-0.719 0-1.37-0.177-1.953-0.531-0.578-0.354-1.029-0.846-1.352-1.477-0.323-0.635-0.484-1.346-0.484-2.133v-0.336c0-0.812 0.156-1.544 0.469-2.195 0.318-0.651 0.758-1.161 1.32-1.531 0.563-0.375 1.172-0.563 1.828-0.563 1.026 0 1.838 0.352 2.438 1.055 0.604 0.698 0.906 1.654 0.906 2.867v0.523h-6.031v0.18c0 0.958 0.273 1.758 0.82 2.398 0.552 0.635 1.245 0.953 2.078 0.953 0.5 0 0.94-0.091 1.32-0.273 0.385-0.182 0.734-0.474 1.047-0.875l0.586 0.445c-0.687 0.995-1.685 1.492-2.992 1.492zM77.799 10.854c-0.703 0-1.297 0.258-1.781 0.774-0.479 0.516-0.771 1.208-0.875 2.078h5.070v-0.101c-0.026-0.813-0.258-1.474-0.695-1.984s-1.010-0.766-1.719-0.766z"></path>
</symbol>
<symbol id="icon-fusely-logo" viewBox="0 0 94 32">
<path fill="#6c63ff" style="fill: var(--color2, #6c63ff)" d="M11.561 0.302c-1.249 0-2.446 0.467-3.33 1.297s-1.379 1.956-1.38 3.131v2.011h-2.139c-0.619-0-1.232 0.114-1.804 0.336s-1.091 0.549-1.529 0.96c-0.438 0.411-0.785 0.9-1.021 1.438s-0.358 1.114-0.358 1.696v4.426h6.85v4.023h-2.139c-1.249-0-2.447 0.466-3.331 1.297s-1.38 1.957-1.381 3.131v7.65h4.714c0.618-0 1.23-0.115 1.802-0.338s1.090-0.549 1.527-0.96 0.783-0.899 1.020-1.437c0.236-0.537 0.358-1.113 0.357-1.694h0.006v-2.922l-0.013 0.002v-18.619l0.010 0.002v-1.001c0.001-0.534 0.227-1.045 0.627-1.423s0.944-0.591 1.512-0.594h8.181v2.017c-0.002 0.533-0.228 1.045-0.629 1.421s-0.945 0.589-1.513 0.59h-7.21v2.414h7.209c1.249 0 2.447-0.466 3.33-1.297s1.379-1.956 1.379-3.131v-4.428l-10.748 0.001zM6.852 13.183h-4.28v-2.012c0.001-0.534 0.227-1.047 0.628-1.425s0.946-0.592 1.514-0.594h2.139l-0.001 4.030zM6.852 27.271c-0.001 0.533-0.227 1.045-0.628 1.422s-0.945 0.59-1.512 0.592h-2.142v-5.235c0.001-0.534 0.226-1.045 0.628-1.423s0.946-0.589 1.514-0.589h2.139v5.233zM10.391 15.598h5.403v2.014c-0.002 0.533-0.229 1.044-0.63 1.421s-0.945 0.589-1.512 0.59h-3.261v2.416h3.262c0.619 0 1.231-0.114 1.803-0.336s1.091-0.549 1.528-0.96c0.437-0.411 0.784-0.899 1.021-1.437s0.358-1.113 0.358-1.695h0.002v-4.428h-7.974v2.415z"></path>
<path fill="#2f2e41" style="fill: var(--color3, #2f2e41)" d="M36.339 13.682h-2.903v9.775h-3.354v-9.775h-1.847v-1.616l1.847-0.902v-0.902c0-1.4 0.345-2.423 1.034-3.068s1.792-0.968 3.309-0.968c1.158 0 2.188 0.172 3.090 0.517l-0.858 2.463c-0.674-0.213-1.297-0.319-1.869-0.319-0.476 0-0.821 0.143-1.034 0.429-0.212 0.279-0.319 0.638-0.319 1.078v0.77h2.903v2.518z"></path>
<path fill="#2f2e41" style="fill: var(--color3, #2f2e41)" d="M46.39 23.457l-0.451-1.572h-0.176c-0.359 0.572-0.869 1.015-1.528 1.331-0.66 0.308-1.411 0.462-2.254 0.462-1.444 0-2.532-0.385-3.266-1.154-0.733-0.777-1.1-1.891-1.1-3.343v-8.016h3.354v7.18c0 0.887 0.158 1.554 0.473 2.001 0.315 0.44 0.817 0.66 1.506 0.66 0.938 0 1.616-0.311 2.034-0.935 0.418-0.63 0.627-1.671 0.627-3.123v-5.784h3.354v12.293h-2.573z"></path>
<path fill="#2f2e41" style="fill: var(--color3, #2f2e41)" d="M60.465 19.807c0 1.261-0.44 2.221-1.319 2.881-0.872 0.66-2.181 0.989-3.925 0.989-0.894 0-1.657-0.062-2.287-0.187-0.63-0.117-1.221-0.293-1.77-0.528v-2.771c0.623 0.293 1.323 0.539 2.1 0.737 0.784 0.198 1.473 0.297 2.067 0.297 1.217 0 1.825-0.352 1.825-1.056 0-0.264-0.081-0.477-0.242-0.638-0.161-0.169-0.44-0.356-0.836-0.561-0.396-0.212-0.924-0.458-1.583-0.737-0.946-0.396-1.642-0.762-2.089-1.1-0.44-0.337-0.762-0.722-0.968-1.155-0.198-0.44-0.297-0.979-0.297-1.616 0-1.092 0.422-1.935 1.264-2.529 0.85-0.601 2.053-0.902 3.607-0.902 1.481 0 2.921 0.323 4.321 0.968l-1.012 2.419c-0.616-0.264-1.191-0.48-1.726-0.649s-1.081-0.253-1.638-0.253c-0.989 0-1.484 0.268-1.484 0.803 0 0.301 0.158 0.561 0.473 0.781 0.322 0.22 1.023 0.546 2.1 0.979 0.96 0.388 1.664 0.751 2.111 1.089s0.777 0.726 0.99 1.166c0.213 0.44 0.319 0.964 0.319 1.572z"></path>
<path fill="#2f2e41" style="fill: var(--color3, #2f2e41)" d="M67.58 13.319c-0.711 0-1.268 0.227-1.671 0.682-0.403 0.447-0.634 1.085-0.693 1.913h4.706c-0.015-0.828-0.231-1.466-0.649-1.913-0.418-0.455-0.982-0.682-1.693-0.682zM68.053 23.677c-1.979 0-3.526-0.546-4.64-1.638s-1.671-2.639-1.671-4.64c0-2.060 0.513-3.651 1.539-4.772 1.034-1.129 2.459-1.693 4.277-1.693 1.737 0 3.090 0.495 4.057 1.484s1.451 2.357 1.451 4.101v1.627h-7.928c0.037 0.953 0.319 1.697 0.847 2.232s1.268 0.803 2.221 0.803c0.74 0 1.44-0.077 2.1-0.231s1.349-0.4 2.067-0.737v2.595c-0.586 0.293-1.213 0.509-1.88 0.649-0.667 0.147-1.481 0.22-2.441 0.22z"></path>
<path fill="#2f2e41" style="fill: var(--color3, #2f2e41)" d="M78.555 23.457h-3.354v-17.109h3.354v17.109z"></path>
<path fill="#2f2e41" style="fill: var(--color3, #2f2e41)" d="M79.732 11.164h3.672l2.32 6.916c0.198 0.601 0.334 1.312 0.407 2.133h0.066c0.081-0.755 0.238-1.466 0.473-2.133l2.276-6.916h3.596l-5.201 13.865c-0.476 1.283-1.158 2.243-2.045 2.881-0.88 0.638-1.91 0.957-3.090 0.957-0.579 0-1.147-0.062-1.704-0.187v-2.661c0.403 0.095 0.843 0.143 1.319 0.143 0.594 0 1.111-0.183 1.55-0.55 0.447-0.359 0.795-0.905 1.044-1.638l0.198-0.605-4.882-12.205z"></path>
</symbol>
<symbol id="icon-logo" viewBox="0 0 94 32">
<path fill="#9e99ff" style="fill: var(--color4, #9e99ff)" d="M18.078 14.307c-1.070 0.878-1.605 2.099-1.459 3.332l-0.025-0.021c0.15 1.45-0.491 2.881-1.753 3.91s-3.016 1.552-4.794 1.43l0.025 0.020c-2.153-0.163-4.201 0.792-5.12 2.388s-0.512 3.491 1.018 4.738c1.53 1.247 3.854 1.577 5.81 0.826s3.126-2.422 2.924-4.177l0.027 0.021c-0.15-1.45 0.491-2.881 1.753-3.91s3.016-1.552 4.794-1.43l-0.026-0.021c2.366 0.174 4.568-1.003 5.318-2.842s-0.15-3.856-2.173-4.873c-2.023-1.016-4.637-0.765-6.314 0.608h-0.004z"></path>
<path fill="#6c63ff" style="fill: var(--color2, #6c63ff)" d="M8.746 18.027c1.070-0.878 1.605-2.1 1.458-3.332l0.027 0.020c-0.15-1.451 0.492-2.881 1.754-3.911s3.017-1.552 4.796-1.429l-0.026-0.020c2.153 0.164 4.2-0.79 5.12-2.385s0.514-3.49-1.015-4.737-3.852-1.578-5.809-0.828c-1.957 0.75-3.126 2.42-2.925 4.176l-0.025-0.020c0.15 1.45-0.491 2.881-1.753 3.91s-3.016 1.552-4.794 1.43l0.025 0.020c-2.366-0.173-4.568 1.004-5.317 2.843s0.151 3.856 2.174 4.872c2.023 1.016 4.637 0.764 6.314-0.608h-0.003z"></path>
<path fill="#6c63ff" style="fill: var(--color2, #6c63ff)" d="M90.383 21.893c1.314 0 2.379-1.039 2.379-2.321s-1.065-2.321-2.379-2.321-2.378 1.039-2.378 2.321c0 1.282 1.065 2.321 2.378 2.321z"></path>
<path fill="#2f2e41" style="fill: var(--color3, #2f2e41)" d="M44.418 13.835h-2.428v8.059h-2.805v-8.059h-1.545v-1.332l1.545-0.743v-0.743c0-1.154 0.288-1.997 0.864-2.529s1.499-0.798 2.768-0.798c0.969 0 1.83 0.142 2.584 0.426l-0.717 2.031c-0.564-0.175-1.085-0.263-1.563-0.263-0.398 0-0.687 0.118-0.864 0.354-0.178 0.23-0.267 0.526-0.267 0.888v0.635h2.428v2.076z"></path>
<path fill="#2f2e41" style="fill: var(--color3, #2f2e41)" d="M51.848 21.894l-0.377-1.296h-0.147c-0.3 0.471-0.727 0.837-1.278 1.097-0.552 0.254-1.18 0.381-1.885 0.381-1.208 0-2.118-0.317-2.731-0.952-0.613-0.641-0.92-1.559-0.92-2.756v-6.608h2.805v5.919c0 0.731 0.132 1.281 0.395 1.65 0.264 0.363 0.684 0.544 1.26 0.544 0.785 0 1.352-0.257 1.701-0.77 0.349-0.52 0.524-1.378 0.524-2.574v-4.768h2.805v10.134h-2.152z"></path>
<path fill="#2f2e41" style="fill: var(--color3, #2f2e41)" d="M62.644 18.884c0 1.039-0.368 1.831-1.104 2.375-0.73 0.544-1.824 0.816-3.283 0.816-0.748 0-1.386-0.051-1.913-0.154-0.527-0.097-1.021-0.242-1.481-0.435v-2.284c0.521 0.242 1.107 0.444 1.757 0.607 0.656 0.163 1.232 0.245 1.729 0.245 1.018 0 1.527-0.29 1.527-0.87 0-0.218-0.067-0.393-0.202-0.526-0.135-0.139-0.368-0.293-0.699-0.462-0.331-0.175-0.773-0.378-1.324-0.607-0.791-0.326-1.373-0.629-1.747-0.907-0.368-0.278-0.638-0.595-0.809-0.952-0.166-0.363-0.248-0.807-0.248-1.333 0-0.9 0.353-1.595 1.058-2.085 0.711-0.496 1.717-0.743 3.016-0.743 1.238 0 2.443 0.266 3.614 0.798l-0.846 1.994c-0.515-0.218-0.996-0.396-1.444-0.535s-0.904-0.208-1.37-0.208c-0.828 0-1.242 0.221-1.242 0.662 0 0.248 0.132 0.462 0.395 0.644 0.27 0.181 0.855 0.45 1.757 0.807 0.803 0.32 1.392 0.619 1.766 0.897s0.65 0.598 0.828 0.961c0.178 0.363 0.267 0.795 0.267 1.296z"></path>
<path fill="#2f2e41" style="fill: var(--color3, #2f2e41)" d="M67.619 13.536c-0.595 0-1.061 0.187-1.398 0.562-0.337 0.369-0.53 0.894-0.579 1.577h3.936c-0.012-0.683-0.193-1.209-0.543-1.577-0.35-0.375-0.822-0.562-1.416-0.562zM68.015 22.075c-1.655 0-2.949-0.45-3.881-1.351s-1.398-2.176-1.398-3.825c0-1.698 0.429-3.010 1.288-3.934 0.864-0.931 2.057-1.396 3.578-1.396 1.453 0 2.584 0.408 3.394 1.224s1.214 1.943 1.214 3.381v1.342h-6.631c0.031 0.786 0.267 1.399 0.708 1.84s1.061 0.662 1.858 0.662c0.619 0 1.205-0.063 1.756-0.19s1.128-0.329 1.729-0.607v2.139c-0.49 0.242-1.015 0.42-1.573 0.535-0.558 0.121-1.238 0.181-2.042 0.181z"></path>
<path fill="#2f2e41" style="fill: var(--color3, #2f2e41)" d="M75.822 21.894h-2.805v-14.105h2.805v14.105z"></path>
<path fill="#2f2e41" style="fill: var(--color3, #2f2e41)" d="M75.83 11.759h3.072l1.94 5.702c0.166 0.496 0.279 1.082 0.34 1.759h0.055c0.068-0.622 0.199-1.209 0.396-1.759l1.904-5.702h3.007l-4.35 11.431c-0.398 1.058-0.969 1.849-1.71 2.375-0.736 0.526-1.597 0.789-2.584 0.789-0.484 0-0.96-0.051-1.425-0.154v-2.194c0.337 0.079 0.705 0.118 1.104 0.118 0.497 0 0.929-0.151 1.297-0.453 0.374-0.296 0.665-0.746 0.874-1.351l0.166-0.498-4.083-10.062z"></path>
</symbol>
<symbol id="icon-loogipsum-logo" viewBox="0 0 82 32">
<path fill="#9893a3" style="fill: var(--color1, #9893a3)" opacity="0.6" d="M0.152 18.264h2.442v10.41h-2.442v-10.41z"></path>
<path fill="#9893a3" style="fill: var(--color1, #9893a3)" opacity="0.6" d="M6.688 21.611c-1.624 0.587-2.681 1.967-2.678 3.496-0.011 1.005 0.444 1.971 1.261 2.68s1.93 1.103 3.085 1.092c1.759 0 3.344-0.921 4.017-2.334s0.299-3.039-0.946-4.119c-1.245-1.080-3.116-1.402-4.74-0.815zM8.325 23.508c1.036-0.015 1.893 0.698 1.92 1.599 0.028 0.446-0.161 0.882-0.52 1.202s-0.855 0.495-1.369 0.482c-1.037-0-1.879-0.727-1.888-1.628s0.82-1.64 1.856-1.655z"></path>
<path fill="#9893a3" style="fill: var(--color1, #9893a3)" opacity="0.6" d="M32.334 28.351v-6.779l-2.401 0.021v0.708c-0.585-0.62-1.472-0.964-2.393-0.927-2.302 0-4.168 1.622-4.168 3.623s1.866 3.623 4.168 3.623c0.922 0.040 1.811-0.304 2.393-0.927v0.658c0.047 0.437-0.142 0.869-0.512 1.168s-0.879 0.432-1.377 0.36c-0.765 0.055-1.491-0.301-1.831-0.899l-2.1 1.054c0.821 1.162 2.319 1.828 3.883 1.727 2.182 0 4.339-1.012 4.339-3.411zM28.764 23.352c0.739 0.29 1.201 0.941 1.168 1.645 0.015 0.456-0.192 0.895-0.57 1.211s-0.893 0.477-1.416 0.445c-0.811-0.001-1.539-0.429-1.841-1.083s-0.117-1.402 0.468-1.89 1.452-0.617 2.191-0.328z"></path>
<path fill="#9893a3" style="fill: var(--color1, #9893a3)" opacity="0.6" d="M16.226 21.661c-1.624 0.587-2.681 1.967-2.678 3.496-0.011 1.005 0.444 1.971 1.261 2.68s1.93 1.103 3.085 1.092c1.759 0 3.344-0.922 4.017-2.334s0.299-3.039-0.946-4.119c-1.245-1.080-3.116-1.402-4.74-0.815zM17.863 23.558c1.036-0.015 1.893 0.698 1.92 1.599h-0.016c0.027 0.444-0.159 0.877-0.514 1.197s-0.847 0.496-1.358 0.488c-1.037-0-1.879-0.727-1.888-1.628s0.82-1.64 1.856-1.655z"></path>
<path fill="#9893a3" style="fill: var(--color1, #9893a3)" opacity="0.6" d="M35.237 18.342c-0.818 0-1.481 0.577-1.481 1.288 0.004 0.71 0.665 1.284 1.481 1.288 0.818 0 1.481-0.577 1.481-1.288s-0.663-1.288-1.481-1.288zM36.45 21.541h-2.442v7.133h2.442v-7.133z"></path>
<path fill="#9893a3" style="fill: var(--color1, #9893a3)" opacity="0.6" d="M46.043 27.702c0.735-0.708 1.115-1.642 1.055-2.594 0.058-0.951-0.323-1.883-1.058-2.59s-1.763-1.129-2.857-1.175c-0.922-0.038-1.816 0.28-2.442 0.87v-0.672h-2.442v10.006h2.442v-3.538c0.626 0.59 1.52 0.909 2.442 0.87 1.096-0.046 2.125-0.47 2.86-1.178zM42.686 23.452c1.066-0.008 1.943 0.729 1.969 1.655h-0.016c0.039 0.469-0.157 0.929-0.538 1.263s-0.908 0.508-1.448 0.478c-1.066-0.023-1.913-0.785-1.904-1.712s0.871-1.676 1.937-1.684z"></path>
<path fill="#9893a3" style="fill: var(--color1, #9893a3)" opacity="0.6" d="M54.701 26.537c0 1.642-1.628 2.342-3.419 2.342-1.464 0.113-2.859-0.56-3.525-1.698l2.133-1.054c0.178 0.53 0.758 0.881 1.392 0.842 0.594 0 0.887-0.163 0.887-0.446 0-0.786-4.070-0.368-4.070-2.831 0-1.557 1.514-2.342 3.256-2.342 1.309-0.035 2.537 0.55 3.207 1.529l-2.141 0.977c-0.193-0.382-0.627-0.629-1.107-0.63-0.423 0-0.684 0.141-0.684 0.403 0.033 0.814 4.070 0.269 4.070 2.909z"></path>
<path fill="#9893a3" style="fill: var(--color1, #9893a3)" opacity="0.6" d="M63.688 21.541v7.133h-2.442v-0.665c-0.576 0.6-1.448 0.923-2.344 0.87-1.628 0-3.069-1.026-3.069-2.958v-4.38h2.442v4.069c-0.044 0.351 0.097 0.701 0.383 0.952s0.686 0.377 1.091 0.343c0.895 0 1.522-0.453 1.522-1.465v-3.899h2.418z"></path>
<path fill="#9893a3" style="fill: var(--color1, #9893a3)" opacity="0.6" d="M77.804 24.301v4.373h-2.442v-4.189c0-0.708-0.399-1.175-1.18-1.175s-1.286 0.502-1.286 1.345v4.020h-2.442v-4.189c0-0.708-0.391-1.175-1.18-1.175s-1.278 0.502-1.278 1.345v4.020h-2.442v-7.133h2.442v0.658c0.519-0.591 1.346-0.913 2.198-0.856 0.857-0.036 1.672 0.321 2.149 0.941 0.554-0.648 1.451-1.003 2.377-0.941 1.856 0 3.085 1.175 3.085 2.958z"></path>
<path fill="#9893a3" style="fill: var(--color1, #9893a3)" opacity="0.6" d="M79.889 21.498c1.007 0 1.823-0.71 1.823-1.585s-0.816-1.585-1.823-1.585c-1.007 0-1.823 0.71-1.823 1.585s0.816 1.585 1.823 1.585z"></path>
<path fill="#9893a3" style="fill: var(--color1, #9893a3)" opacity="0.4" d="M23.841 13.867c3.749 0 6.788-2.962 6.788-6.616s-3.039-6.616-6.788-6.616-6.788 2.962-6.788 6.616c0 3.654 3.039 6.616 6.788 6.616z"></path>
<path fill="#cfcfde" style="fill: var(--color5, #cfcfde)" opacity="0.5" d="M40.742 13.867c3.749 0 6.788-2.962 6.788-6.616s-3.039-6.616-6.788-6.616-6.788 2.962-6.788 6.616c0 3.654 3.039 6.616 6.788 6.616z"></path>
<path fill="#9893a3" style="fill: var(--color1, #9893a3)" opacity="0.5" d="M0.152 0.635h13.576v13.233h-13.576v-13.233z"></path>
</symbol>
<symbol id="icon-burger-menu" viewBox="0 0 40 32">
<path fill="#6c63ff" style="fill: var(--color2, #6c63ff)" d="M0 2.793c0-0.884 0.716-1.6 1.6-1.6h36.8c0.884 0 1.6 0.716 1.6 1.6v1.6c0 0.884-0.716 1.6-1.6 1.6h-36.8c-0.884 0-1.6-0.716-1.6-1.6v-1.6z"></path>
<path fill="#6c63ff" style="fill: var(--color2, #6c63ff)" d="M1.6 13.993h36.8c0.884 0 1.6 0.716 1.6 1.6v1.6c0 0.884-0.716 1.6-1.6 1.6h-36.8c-0.884 0-1.6-0.716-1.6-1.6v-1.6c0-0.884 0.716-1.6 1.6-1.6z"></path>
<path fill="#6c63ff" style="fill: var(--color2, #6c63ff)" d="M1.6 26.793h36.8c0.884 0 1.6 0.716 1.6 1.6v1.6c0 0.884-0.716 1.6-1.6 1.6h-36.8c-0.884 0-1.6-0.716-1.6-1.6v-1.6c0-0.884 0.716-1.6 1.6-1.6z"></path>
</symbol>
<symbol id="icon-close" viewBox="0 0 32 32">
<path fill="#6c63ff" style="fill: var(--color2, #6c63ff)" d="M2.409 1.86c0.463-0.613 1.293-0.686 1.855-0.161l26.718 24.931c0.562 0.524 0.642 1.446 0.179 2.060l-0.737 0.976c-0.463 0.613-1.293 0.686-1.855 0.161l-26.718-24.931c-0.562-0.524-0.642-1.446-0.179-2.060l0.737-0.976z"></path>
<path fill="#6c63ff" style="fill: var(--color2, #6c63ff)" d="M1.017 26.396l26.718-24.931c0.562-0.524 1.392-0.452 1.855 0.161l0.737 0.976c0.463 0.613 0.383 1.536-0.179 2.060l-26.718 24.931c-0.562 0.524-1.392 0.452-1.855-0.161l-0.737-0.976c-0.463-0.613-0.383-1.536 0.179-2.060z"></path>
</symbol>
<symbol id="icon-square-logo" viewBox="0 0 125 32">
<path fill="#9893a3" style="fill: var(--color1, #9893a3)" opacity="0.6" d="M33.443 10.57c-0.002 2.926-1.308 5.713-3.592 7.664v12.835h-28.77v-27.464h13.626c3.007-3.13 7.717-4.176 11.862-2.635s6.874 5.353 6.874 9.6zM27.906 10.57c-0.006-2.771-2.36-5.015-5.262-5.015-2.129 0-4.049 1.226-4.863 3.105s-0.362 4.042 1.146 5.478c1.507 1.436 3.772 1.864 5.738 1.083s3.245-2.617 3.241-4.651zM6.617 25.783h17.698v-5.036c-0.552 0.087-1.111 0.133-1.671 0.136-5.961-0.006-10.792-4.619-10.798-10.312 0.005-0.563 0.060-1.125 0.164-1.679h-5.394v16.891z"></path>
<path fill="#9893a3" style="fill: var(--color1, #9893a3)" opacity="0.6" d="M47.159 23.298c-1.051 0-2.088-0.168-3.109-0.503-1.006-0.35-1.859-0.853-2.56-1.509l1.486-2.674c0.747 0.488 1.463 0.869 2.149 1.143 0.701 0.274 1.333 0.411 1.897 0.411 0.625 0 0.937-0.183 0.937-0.549 0-0.198-0.13-0.358-0.389-0.48-0.244-0.122-0.64-0.267-1.189-0.434-0.945-0.335-1.737-0.648-2.377-0.937-0.625-0.29-1.097-0.64-1.417-1.051-0.305-0.427-0.457-0.99-0.457-1.691 0-1.234 0.457-2.248 1.371-3.040s2.179-1.189 3.794-1.189c0.808 0 1.615 0.13 2.423 0.389 0.823 0.244 1.615 0.693 2.377 1.349l-1.646 2.651c-0.762-0.472-1.41-0.808-1.943-1.006-0.518-0.198-0.983-0.297-1.394-0.297-0.64 0-0.96 0.213-0.96 0.64 0 0.229 0.122 0.404 0.366 0.526s0.632 0.259 1.166 0.411c1.036 0.305 1.882 0.617 2.537 0.937 0.655 0.305 1.135 0.678 1.44 1.12 0.32 0.442 0.48 1.021 0.48 1.737 0 1.265-0.45 2.255-1.349 2.971-0.884 0.716-2.095 1.074-3.634 1.074z"></path>
<path fill="#9893a3" style="fill: var(--color1, #9893a3)" opacity="0.6" d="M59.433 23.298c-0.975 0-1.851-0.274-2.629-0.823s-1.387-1.295-1.829-2.24c-0.442-0.945-0.663-2.019-0.663-3.223 0-1.189 0.236-2.248 0.709-3.177 0.488-0.93 1.15-1.661 1.989-2.194 0.838-0.549 1.79-0.823 2.857-0.823 0.899 0 1.661 0.183 2.286 0.549 0.64 0.366 1.173 0.876 1.6 1.531v-1.851h3.771v16.914h-4.343v-6.674c-0.701 1.341-1.95 2.011-3.749 2.011zM61.125 19.64c0.808 0 1.493-0.411 2.057-1.234v-2.149c-0.198-0.533-0.511-0.96-0.937-1.28-0.411-0.335-0.846-0.503-1.303-0.503-0.625 0-1.151 0.259-1.577 0.777-0.411 0.518-0.617 1.143-0.617 1.874 0 0.747 0.221 1.356 0.663 1.829 0.442 0.457 1.013 0.686 1.714 0.686z"></path>
<path fill="#9893a3" style="fill: var(--color1, #9893a3)" opacity="0.6" d="M70.758 18.955v-7.909h4.343v6.926c0 0.518 0.114 0.93 0.343 1.234 0.244 0.29 0.571 0.434 0.983 0.434 0.335 0 0.678-0.076 1.029-0.229s0.701-0.488 1.051-1.006v-7.36h4.343v7.223c0 0.411 0.061 0.701 0.183 0.869 0.122 0.152 0.335 0.244 0.64 0.274v3.657c-0.747 0.152-1.356 0.229-1.829 0.229-1.478 0-2.331-0.556-2.56-1.669l-0.091-0.434c-0.564 0.747-1.242 1.288-2.034 1.623-0.777 0.32-1.661 0.48-2.651 0.48-1.204 0-2.133-0.373-2.789-1.12-0.64-0.747-0.96-1.821-0.96-3.223z"></path>
<path fill="#9893a3" style="fill: var(--color1, #9893a3)" opacity="0.6" d="M85.928 19.435c0-0.808 0.221-1.516 0.663-2.126 0.442-0.625 1.051-1.112 1.829-1.463 0.792-0.35 1.691-0.526 2.697-0.526 0.975 0 1.783 0.152 2.423 0.457v-0.366c0-0.564-0.168-0.983-0.503-1.257-0.32-0.274-0.846-0.411-1.577-0.411-0.671 0-1.303 0.114-1.897 0.343-0.579 0.213-1.189 0.533-1.829 0.96l-1.257-2.697c1.585-1.021 3.391-1.531 5.417-1.531 1.905 0 3.375 0.434 4.411 1.303 1.051 0.853 1.577 2.126 1.577 3.817v2.331c0 0.411 0.061 0.701 0.183 0.869 0.122 0.152 0.335 0.244 0.64 0.274v3.657c-0.35 0.076-0.686 0.13-1.006 0.16-0.305 0.046-0.579 0.069-0.823 0.069-0.777 0-1.371-0.137-1.783-0.411-0.396-0.29-0.655-0.709-0.777-1.257l-0.091-0.434c-1.097 1.402-2.461 2.103-4.091 2.103-0.792 0-1.509-0.168-2.149-0.503s-1.143-0.792-1.509-1.371c-0.366-0.594-0.549-1.257-0.549-1.989zM92.968 19.732c0.381-0.259 0.571-0.541 0.571-0.846v-0.891c-0.244-0.091-0.526-0.168-0.846-0.229-0.305-0.061-0.579-0.091-0.823-0.091-0.518 0-0.96 0.13-1.326 0.389-0.35 0.259-0.526 0.587-0.526 0.983 0 0.335 0.129 0.61 0.389 0.823 0.274 0.213 0.617 0.32 1.029 0.32 0.564 0 1.074-0.152 1.531-0.457z"></path>
<path fill="#9893a3" style="fill: var(--color1, #9893a3)" opacity="0.6" d="M109.577 14.749c-0.838 0-1.6 0.091-2.286 0.274s-1.196 0.488-1.531 0.914v7.131h-4.343v-12.023h3.977v2.286c0.427-0.808 0.96-1.425 1.6-1.851 0.64-0.442 1.318-0.663 2.034-0.663 0.29 0 0.472 0.008 0.549 0.023v3.909z"></path>
<path fill="#9893a3" style="fill: var(--color1, #9893a3)" opacity="0.6" d="M117.989 23.298c-1.402 0-2.598-0.282-3.589-0.846-0.975-0.564-1.722-1.31-2.24-2.24-0.503-0.93-0.754-1.928-0.754-2.994 0-1.158 0.251-2.217 0.754-3.177 0.503-0.975 1.242-1.752 2.217-2.331 0.975-0.594 2.179-0.891 3.611-0.891s2.637 0.29 3.611 0.869c0.975 0.579 1.714 1.341 2.217 2.286s0.754 1.973 0.754 3.086c0 0.472-0.038 0.914-0.114 1.326h-8.434c0.046 0.64 0.282 1.105 0.709 1.394 0.426 0.274 0.891 0.411 1.394 0.411 0.472 0 0.914-0.107 1.326-0.32 0.426-0.213 0.709-0.51 0.846-0.891l3.68 1.051c-0.488 0.96-1.242 1.745-2.263 2.354s-2.263 0.914-3.726 0.914zM115.931 15.778h3.977c-0.061-0.579-0.274-1.036-0.64-1.371-0.351-0.335-0.8-0.503-1.349-0.503s-0.998 0.168-1.349 0.503c-0.351 0.335-0.563 0.792-0.64 1.371z"></path>
</symbol>
<symbol id="icon-umbrella-logo" viewBox="0 0 129 32">
<path fill="#9893a3" style="fill: var(--color1, #9893a3)" opacity="0.6" d="M1.687 14.448c1.654-7.81 7.622-13.292 14.47-13.292s12.817 5.482 14.47 13.292h-1.307c-2.205-0.038-4.365 0.736-6.176 2.214-0.104 0.089-0.214 0.17-0.327 0.243h-0.152c-0.113-0.073-0.222-0.154-0.327-0.243-3.738-2.954-8.625-2.954-12.363 0-0.105 0.089-0.214 0.17-0.327 0.243h-0.152c-0.113-0.073-0.222-0.154-0.327-0.243-1.811-1.478-3.971-2.253-6.176-2.214h-1.307zM26.969 22.473c0.671-0.614 1.503-0.935 2.353-0.909h1.754v-4.109h-1.754c-1.497-0.021-2.961 0.526-4.172 1.562-1.399 1.212-3.307 1.212-4.706 0-2.543-2.081-5.92-2.081-8.463 0-1.399 1.212-3.307 1.212-4.705 0-1.226-1.048-2.71-1.597-4.226-1.562h-1.808v4.109h1.754c0.85-0.026 1.682 0.295 2.353 0.909 2.539 2.082 5.914 2.082 8.452 0 0.672-0.612 1.503-0.933 2.353-0.909 0.85-0.029 1.683 0.293 2.353 0.909 2.543 2.081 5.92 2.081 8.463 0zM29.322 28.912c-0.85-0.026-1.682 0.295-2.353 0.909-2.543 2.081-5.92 2.081-8.463 0-0.67-0.616-1.502-0.937-2.353-0.909-0.85-0.024-1.681 0.297-2.353 0.909-2.539 2.082-5.914 2.082-8.452 0-0.671-0.614-1.503-0.935-2.353-0.909h-1.754v-4.109h1.808c1.516-0.035 3 0.513 4.226 1.562 1.399 1.212 3.306 1.212 4.705 0 2.543-2.081 5.92-2.081 8.463 0 1.399 1.212 3.306 1.212 4.706 0 1.211-1.035 2.674-1.583 4.172-1.562h1.754v4.109h-1.754z"></path>
<path fill="#9893a3" style="fill: var(--color1, #9893a3)" opacity="0.6" d="M44.931 25.776c-1.348 0-2.33-0.427-2.944-1.28-0.614-0.87-0.922-2.108-0.922-3.712v-7.885h2.944v7.501c0 1.041 0.154 1.775 0.461 2.202s0.802 0.64 1.485 0.64c0.546 0 1.024-0.136 1.434-0.41 0.427-0.273 0.879-0.717 1.357-1.331v-8.602h2.944v12.57h-2.406l-0.23-1.843h-0.077c-0.546 0.649-1.144 1.169-1.792 1.562-0.632 0.393-1.382 0.589-2.253 0.589z"></path>
<path fill="#9893a3" style="fill: var(--color1, #9893a3)" opacity="0.6" d="M54.138 25.469v-12.57h2.432l0.205 1.715h0.102c0.529-0.563 1.101-1.041 1.715-1.434 0.631-0.392 1.34-0.589 2.125-0.589 0.922 0 1.655 0.196 2.202 0.589 0.563 0.393 0.99 0.947 1.28 1.664 0.597-0.648 1.22-1.186 1.869-1.613s1.374-0.64 2.176-0.64c1.331 0 2.312 0.435 2.944 1.306 0.631 0.853 0.947 2.082 0.947 3.686v7.885h-2.97v-7.501c0-1.041-0.162-1.775-0.486-2.202-0.307-0.427-0.785-0.64-1.434-0.64-0.785 0-1.664 0.521-2.637 1.562v8.781h-2.944v-7.501c0-1.041-0.162-1.775-0.486-2.202-0.307-0.427-0.794-0.64-1.459-0.64-0.785 0-1.664 0.521-2.637 1.562v8.781h-2.944z"></path>
<path fill="#9893a3" style="fill: var(--color1, #9893a3)" opacity="0.6" d="M80.526 25.776c-0.58 0-1.169-0.136-1.766-0.41-0.58-0.29-1.135-0.7-1.664-1.229h-0.077l-0.256 1.331h-2.33v-18.074h2.944v4.659l-0.077 2.099c0.529-0.461 1.101-0.836 1.715-1.126 0.632-0.29 1.272-0.435 1.92-0.435 0.785 0 1.485 0.154 2.099 0.461 0.614 0.29 1.135 0.717 1.562 1.28 0.427 0.546 0.751 1.212 0.973 1.997s0.333 1.664 0.333 2.637c0 1.075-0.154 2.040-0.461 2.893-0.29 0.836-0.683 1.545-1.178 2.125s-1.067 1.024-1.715 1.331c-0.648 0.307-1.323 0.461-2.022 0.461zM79.911 23.344c0.836 0 1.536-0.358 2.099-1.075 0.563-0.734 0.845-1.818 0.845-3.251 0-1.263-0.213-2.244-0.64-2.944s-1.118-1.050-2.074-1.050c-0.887 0-1.809 0.469-2.765 1.408v5.862c0.444 0.393 0.879 0.666 1.306 0.819 0.444 0.154 0.853 0.23 1.229 0.23z"></path>
<path fill="#9893a3" style="fill: var(--color1, #9893a3)" opacity="0.6" d="M87.578 25.469v-12.57h2.432l0.205 2.227h0.102c0.444-0.819 0.981-1.442 1.613-1.869 0.631-0.444 1.28-0.666 1.946-0.666 0.597 0 1.075 0.085 1.434 0.256l-0.512 2.56c-0.222-0.068-0.427-0.119-0.614-0.154s-0.418-0.051-0.691-0.051c-0.495 0-1.016 0.196-1.562 0.589-0.546 0.376-1.016 1.041-1.408 1.997v7.68h-2.944z"></path>
<path fill="#9893a3" style="fill: var(--color1, #9893a3)" opacity="0.6" d="M100.974 25.776c-0.87 0-1.681-0.145-2.432-0.435-0.751-0.307-1.408-0.742-1.971-1.306s-1.007-1.246-1.331-2.048c-0.307-0.819-0.461-1.749-0.461-2.79 0-1.024 0.162-1.946 0.486-2.765s0.751-1.51 1.28-2.074c0.546-0.563 1.169-0.998 1.869-1.306s1.416-0.461 2.15-0.461c0.853 0 1.604 0.145 2.253 0.435s1.186 0.7 1.613 1.229c0.444 0.529 0.776 1.161 0.998 1.894s0.333 1.536 0.333 2.406c0 0.29-0.017 0.563-0.051 0.819-0.017 0.256-0.043 0.461-0.077 0.614h-7.987c0.136 1.126 0.529 1.997 1.178 2.611 0.666 0.597 1.51 0.896 2.534 0.896 0.546 0 1.050-0.077 1.51-0.23 0.478-0.171 0.947-0.401 1.408-0.691l0.998 1.843c-0.597 0.393-1.263 0.717-1.997 0.973s-1.502 0.384-2.304 0.384zM97.62 17.993h5.581c0-0.973-0.213-1.732-0.64-2.278-0.41-0.563-1.050-0.845-1.92-0.845-0.751 0-1.408 0.265-1.971 0.794s-0.913 1.306-1.050 2.33z"></path>
<path fill="#9893a3" style="fill: var(--color1, #9893a3)" opacity="0.6" d="M110.16 25.776c-1.058 0-1.801-0.316-2.227-0.947s-0.64-1.493-0.64-2.586v-14.848h2.944v15.002c0 0.358 0.068 0.614 0.205 0.768 0.137 0.137 0.282 0.205 0.435 0.205 0.068 0 0.128 0 0.179 0 0.068 0 0.162-0.017 0.282-0.051l0.384 2.202c-0.393 0.171-0.913 0.256-1.562 0.256z"></path>
<path fill="#9893a3" style="fill: var(--color1, #9893a3)" opacity="0.6" d="M115.83 25.776c-1.058 0-1.801-0.316-2.227-0.947s-0.64-1.493-0.64-2.586v-14.848h2.944v15.002c0 0.358 0.068 0.614 0.205 0.768 0.137 0.137 0.282 0.205 0.435 0.205 0.068 0 0.128 0 0.179 0 0.068 0 0.162-0.017 0.282-0.051l0.384 2.202c-0.393 0.171-0.913 0.256-1.562 0.256z"></path>
<path fill="#9893a3" style="fill: var(--color1, #9893a3)" opacity="0.6" d="M121.679 25.776c-1.109 0-2.005-0.333-2.688-0.998-0.683-0.683-1.024-1.579-1.024-2.688 0-0.666 0.136-1.254 0.41-1.766 0.29-0.529 0.734-0.981 1.331-1.357 0.614-0.375 1.382-0.691 2.304-0.947 0.939-0.256 2.056-0.452 3.354-0.589-0.017-0.324-0.068-0.631-0.154-0.922-0.068-0.307-0.196-0.572-0.384-0.794-0.171-0.239-0.401-0.418-0.691-0.538-0.29-0.136-0.649-0.205-1.075-0.205-0.614 0-1.22 0.12-1.818 0.358-0.58 0.239-1.152 0.529-1.715 0.87l-1.075-1.971c0.7-0.444 1.485-0.828 2.355-1.152s1.809-0.486 2.816-0.486c1.57 0 2.739 0.469 3.507 1.408 0.785 0.922 1.178 2.261 1.178 4.019v7.45h-2.432l-0.205-1.382h-0.102c-0.563 0.478-1.169 0.879-1.818 1.203-0.632 0.324-1.323 0.486-2.074 0.486zM122.627 23.472c0.512 0 0.973-0.119 1.382-0.358 0.427-0.239 0.879-0.58 1.357-1.024v-2.816c-0.853 0.102-1.57 0.239-2.15 0.41s-1.050 0.367-1.408 0.589c-0.358 0.205-0.614 0.444-0.768 0.717s-0.23 0.563-0.23 0.87c0 0.563 0.171 0.973 0.512 1.229s0.776 0.384 1.306 0.384z"></path>
</symbol>
<symbol id="icon-linkedin" viewBox="0 0 35 32">
<path fill="#9893a3" style="fill: var(--color1, #9893a3)" d="M8.191 10.551h-6.943v20.332h6.943v-20.332z"></path>
<path fill="#9893a3" style="fill: var(--color1, #9893a3)" d="M7.023 1.062c-0.662-0.401-1.439-0.615-2.235-0.615-0.531 0-1.056 0.095-1.546 0.28s-0.935 0.456-1.309 0.798c-0.374 0.342-0.67 0.747-0.871 1.193s-0.303 0.923-0.3 1.405c0.005 0.722 0.245 1.426 0.69 2.025s1.076 1.063 1.812 1.337c0.736 0.273 1.545 0.343 2.325 0.199s1.495-0.493 2.056-1.005c0.561-0.512 0.942-1.163 1.096-1.872s0.072-1.442-0.233-2.109c-0.305-0.667-0.822-1.236-1.483-1.637z"></path>
<path fill="#9893a3" style="fill: var(--color1, #9893a3)" d="M19.335 10.55h-6.688l-0.023 20.374h6.943v-10.061c0-2.647 0.555-5.209 4.166-5.209s3.61 3.046 3.61 5.398v9.83h6.943v-11.153c0-5.482-1.412-9.683-8.355-9.683-1.323-0.047-2.636 0.233-3.797 0.81s-2.129 1.43-2.798 2.467v-2.773z"></path>
</symbol>
<symbol id="icon-facebook" viewBox="0 0 21 32">
<path fill="#9893a3" style="fill: var(--color1, #9893a3)" d="M18.32 15.256c0.608-1.503-0.498-3.143-2.119-3.143h-0.419c-1.262 0-2.286-1.023-2.286-2.286v-2.537c0-1.331 1.092-1.206 2.438-1.206h0.152c1.262 0 2.286-1.023 2.286-2.286v-1.457c0-1.262-1.023-2.286-2.286-2.286h-2.591c-1.94 0-3.8 0.762-5.172 2.119s-2.142 3.197-2.142 5.115v2.537c0 1.262-1.023 2.286-2.286 2.286h-0.305c-1.262 0-2.286 1.023-2.286 2.286v1.457c0 1.262 1.023 2.286 2.286 2.286h0.305c1.262 0 2.286 1.023 2.286 2.286v8.691c0 1.262 1.023 2.286 2.286 2.286h2.743c1.262 0 2.286-1.023 2.286-2.286v-8.792c0-1.206 0.978-2.184 2.184-2.184 0.89 0 1.691-0.54 2.025-1.365l0.615-1.52z"></path>
</symbol>
<symbol id="icon-twitter" viewBox="0 0 39 32">
<path fill="#9893a3" style="fill: var(--color1, #9893a3)" d="M37.123 4.736c-0.988 1.469-2.199 2.721-3.635 3.757 0.014 0.278 0.021 0.592 0.021 0.942 0 1.945-0.284 3.892-0.851 5.842s-1.433 3.816-2.599 5.598-2.554 3.362-4.165 4.738c-1.611 1.376-3.548 2.473-5.81 3.291s-4.686 1.227-7.273 1.227c-4.037 0-7.754-1.090-11.153-3.27 0.603 0.067 1.182 0.101 1.735 0.101 3.372 0 6.385-1.039 9.036-3.116-1.572-0.029-2.981-0.513-4.225-1.452s-2.1-2.139-2.568-3.601c0.463 0.088 0.92 0.132 1.37 0.132 0.649 0 1.287-0.085 1.915-0.254-1.678-0.336-3.070-1.172-4.176-2.507s-1.659-2.877-1.659-4.624v-0.090c1.030 0.57 2.129 0.874 3.296 0.91-0.994-0.663-1.782-1.527-2.364-2.593s-0.873-2.219-0.873-3.46c0-1.309 0.328-2.527 0.984-3.656 1.825 2.239 4.036 4.029 6.634 5.369s5.384 2.085 8.36 2.233c-0.127-0.529-0.191-1.081-0.191-1.656 0-2.008 0.71-3.722 2.132-5.143s3.135-2.131 5.143-2.131c2.102 0 3.873 0.765 5.312 2.296 1.644-0.326 3.184-0.915 4.619-1.767-0.553 1.74-1.618 3.082-3.196 4.026 1.45-0.172 2.843-0.553 4.179-1.143h0z"></path>
</symbol>
</defs>
</svg>
